<?xml version="1.0" encoding="UTF-8" standalone="no"?>
<!-- Created with Inkscape (http://www.inkscape.org/) -->

<svg
        xmlns:inkscape="http://www.inkscape.org/namespaces/inkscape"
        xmlns:sodipodi="http://sodipodi.sourceforge.net/DTD/sodipodi-0.dtd"
        version="1.1"
        id="svg1"
        width="17"
        height="17"
        viewBox="0 0 17 17"
        sodipodi:docname="greenleaf.svg"
        inkscape:version="1.3.2 (091e20e, 2023-11-25, custom)"
        xml:space="preserve"
        xmlns="http://www.w3.org/2000/svg"><defs
     id="defs1" />
    <sodipodi:namedview
            id="namedview1"
            pagecolor="#505050"
            bordercolor="#ffffff"
            borderopacity="1"
            inkscape:showpageshadow="0"
            inkscape:pageopacity="0"
            inkscape:pagecheckerboard="1"
            inkscape:deskcolor="#505050"
            showgrid="true"
            inkscape:zoom="22.627417"
            inkscape:cx="-0.35355339"
            inkscape:cy="5.1044271"
            inkscape:window-width="1920"
            inkscape:window-height="991"
            inkscape:window-x="-9"
            inkscape:window-y="-9"
            inkscape:window-maximized="1"
            inkscape:current-layer="g1"><inkscape:grid
       id="grid1"
       units="px"
       originx="0"
       originy="0"
       spacingx="0.5"
       spacingy="0.5"
       empcolor="#0099e5"
       empopacity="0.30196078"
       color="#0099e5"
       opacity="0.14901961"
       empspacing="5"
       dotted="false"
       gridanglex="30"
       gridanglez="30"
       visible="true" /></sodipodi:namedview>
    <g
            inkscape:groupmode="layer"
            inkscape:label="Image"
            id="g1"><path
       id="rect1"
       style="display:inline;fill:#000000;stroke-width:1.375"
       d="m 7.8125,0.9375 v 2.75 h 1.375 v -2.75 z m -5.5,1.375 v 1.375 h 1.375 v -1.375 z m 1.375,1.375 v 1.375 h 1.375 v -1.375 z m 9.625,-1.375 v 1.375 h 1.375 v -1.375 z m 0,1.375 h -1.375 v 1.375 h 1.375 z m -6.875,1.375 v 1.375 h -1.375 v 4.125 h 1.375 v 1.375 h 4.125 v -1.375 h 1.375 v -4.125 h -1.375 v -1.375 z m -5.5,2.75 v 1.375 h 2.75 v -1.375 z m 12.375,0 v 1.375 h 2.75 v -1.375 z m -9.625,4.125 v 1.375 h 1.375 v -1.375 z m 0,1.375 h -1.375 v 1.375 h 1.375 z m 8.25,-1.375 v 1.375 h 1.375 v -1.375 z m 1.375,1.375 v 1.375 h 1.375 v -1.375 z m -5.5,0 v 2.75 h 1.375 v -2.75 z" />
        <path
                id="rect2-1"
                style="display:none;fill:#000000;stroke-width:1.57143"
                d="M 7.7142857,1.4285713 V 2.9999999 H 9.2857143 V 1.4285713 Z M 9.2857143,2.9999999 V 4.5714285 H 10.857143 V 2.9999999 Z m 1.5714287,1.5714286 v 1.5714286 h 1.571428 V 4.5714285 Z m 1.571428,0 H 14 V 2.9999999 h -1.571429 z m 0,1.5714286 V 7.7142857 H 14 V 6.1428571 Z M 14,7.7142857 v 1.5714286 h 1.571429 V 7.7142857 Z m 0,1.5714286 H 12.428571 V 10.857143 H 14 Z m -1.571429,1.5714287 h -1.571428 v 1.571428 h 1.571428 z m 0,1.571428 V 14 H 14 v -1.571429 z m -1.571428,0 H 9.2857143 V 14 H 10.857143 Z M 9.2857143,14 H 7.7142857 v 1.571429 H 9.2857143 Z M 7.7142857,14 V 12.428571 H 6.1428571 V 14 Z M 6.1428571,12.428571 V 10.857143 H 4.5714285 v 1.571428 z m -1.5714286,0 H 2.9999999 V 14 h 1.5714286 z m 0,-1.571428 V 9.2857143 H 2.9999999 V 10.857143 Z M 2.9999999,9.2857143 V 7.7142857 H 1.4285713 v 1.5714286 z m 0,-1.5714286 H 4.5714285 V 6.1428571 H 2.9999999 Z M 4.5714285,6.1428571 H 6.1428571 V 4.5714285 H 4.5714285 Z m 0,-1.5714286 V 2.9999999 H 2.9999999 v 1.5714286 z m 1.5714286,0 H 7.7142857 V 2.9999999 H 6.1428571 Z m 1.5714286,0 V 7.7142857 H 9.2857143 V 4.5714285 Z M 9.2857143,7.7142857 V 9.2857143 H 12.428571 V 7.7142857 Z m 0,1.5714286 H 7.7142857 v 3.1428567 h 1.5714286 z m -1.5714286,0 V 7.7142857 H 4.5714285 v 1.5714286 z"/></g></svg>
