<?xml version="1.0" encoding="UTF-8" standalone="no"?>
<!-- Created with Inkscape (http://www.inkscape.org/) -->

<svg
        version="1.1"
        id="svg1"
        width="15"
        height="15"
        viewBox="0 0 15 15"
        xmlns="http://www.w3.org/2000/svg">
    <defs
            id="defs1"/>
    <g
            id="g1"
            transform="translate(-1,-1)">
        <path
                style="fill:#ff0000;stroke-width:1.66667"
                d="M 16,1 V 3.5 H 15.166667 V 4.3333333 H 14.333333 V 5.1666667 H 12.666667 V 6 H 11.833333 V 6.8333333 H 11 v 0.8333334 h 2.5 V 6.8333333 H 16 V 8.5 H 15.166667 V 9.3333333 H 11 V 8.5 H 9.3333333 V 9.3333333 H 8.5 v 0.8333337 h 1.666667 V 11 h 2.5 v 0.833333 H 13.5 v 0.833334 H 9.3333333 V 11.833333 H 8.5 V 11 H 6.8333333 v 0.833333 H 6 v 0.833334 H 5.1666667 V 13.5 h 2.5 v 0.833333 H 8.5 v 0.833334 H 9.3333333 V 16 h -2.5 V 15.166667 H 6 V 14.333333 H 3.5 v 0.833334 H 2.6666667 V 16 H 1.8333333 V 15.166667 H 2.6666667 V 11.833333 H 1.8333333 V 11 H 1 V 8.5 H 1.8333333 V 9.3333333 H 2.6666667 V 10.166667 H 3.5 v 2.5 H 4.3333333 V 11.833333 H 5.1666667 V 11 H 6 V 9.3333333 H 4.3333333 V 7.6666667 H 3.5 v -2.5 H 4.3333333 V 4.3333333 h 0.8333334 v 2.5 H 6 V 8.5 H 6.8333333 V 9.3333333 H 7.6666667 V 8.5 H 8.5 V 6 H 7.6666667 V 5.1666667 H 6.8333333 v -2.5 H 7.6666667 V 1.8333333 H 8.5 V 3.5 H 9.3333333 V 6.8333333 H 10.166667 V 6 H 11 V 4.3333333 h 0.833333 V 2.6666667 h 0.833334 V 1.8333333 h 1.666666 V 1 Z"
                id="path1"/>
    </g>
</svg>
