<?xml version="1.0" encoding="UTF-8" standalone="no"?>
<!-- Created with Inkscape (http://www.inkscape.org/) -->

<svg
        xmlns:inkscape="http://www.inkscape.org/namespaces/inkscape"
        xmlns:sodipodi="http://sodipodi.sourceforge.net/DTD/sodipodi-0.dtd"
        version="1.1"
        id="svg1"
        width="17"
        height="17"
        viewBox="0 0 17 17"
        sodipodi:docname="magnify.svg"
        inkscape:version="1.3.2 (091e20e, 2023-11-25, custom)"
        xml:space="preserve"
        xmlns="http://www.w3.org/2000/svg"><defs
     id="defs1" />
    <sodipodi:namedview
            id="namedview1"
            pagecolor="#505050"
            bordercolor="#ffffff"
            borderopacity="1"
            inkscape:showpageshadow="0"
            inkscape:pageopacity="0"
            inkscape:pagecheckerboard="1"
            inkscape:deskcolor="#505050"
            showgrid="true"
            inkscape:zoom="16"
            inkscape:cx="10.28125"
            inkscape:cy="6.09375"
            inkscape:window-width="1920"
            inkscape:window-height="991"
            inkscape:window-x="-9"
            inkscape:window-y="-9"
            inkscape:window-maximized="1"
            inkscape:current-layer="g1"><inkscape:grid
       id="grid1"
       units="px"
       originx="0"
       originy="0"
       spacingx="0.5"
       spacingy="0.5"
       empcolor="#0099e5"
       empopacity="0.30196078"
       color="#0099e5"
       opacity="0.14901961"
       empspacing="5"
       dotted="false"
       gridanglex="30"
       gridanglez="30"
       visible="true" /></sodipodi:namedview>
    <g
            inkscape:groupmode="layer"
            inkscape:label="Image"
            id="g1"><path
       id="rect3-06"
       style="fill:#000000;stroke-width:1.50112"
       d="M 5.1554622,1.5 V 2.2407407 H 4.394958 3.6344537 V 2.9814815 H 2.8739495 V 3.7222222 H 2.1134454 V 5.2037037 H 1.3529412 v 2.962963 H 2.1134454 V 8.9074075 9.648148 h 0.7605041 v 0.740741 h 0.7605042 v 0.74074 h 1.5210085 v 0.740742 h 3.0420166 v -0.740742 h 0.7605043 0.7605042 v -0.0029 h 0.7605037 v 0.74074 h 0.760504 v 0.743635 H 12 v 0.740741 h 0.760504 v 0.74074 h 0.760504 v 0.740769 h 0.760504 v 0.740741 h 0.760504 v -0.740741 h 0.760504 v -0.74074 h -0.760504 v -0.740741 h -0.760504 v -0.740741 h -0.760504 v -0.74074 H 12.760504 V 11.129629 H 12 v -0.74074 H 11.239495 V 9.6452548 8.1666667 H 12 V 5.2037037 H 11.239495 V 4.462963 3.7222222 H 10.478991 V 2.9814815 H 9.7184873 V 2.2407407 H 8.1974788 V 1.5 Z M 4.394958,2.9814815 H 5.1554622 8.9579831 V 3.7222222 H 9.7184873 V 4.462963 H 10.478991 V 5.2037037 8.9074075 H 9.7184873 V 9.648148 H 8.9579831 v 0.740741 H 8.1974788 4.394958 V 9.648148 H 3.6344537 V 8.9074075 H 2.8739495 V 8.1666667 4.462963 H 3.6344537 V 3.7222222 H 4.394958 Z M 6.6764705,3.7222222 V 4.462963 H 8.1974788 V 3.7222222 Z M 8.1974788,4.462963 V 5.2037037 H 8.9579831 V 4.462963 Z M 8.9579831,5.2037037 V 7.4259259 H 9.7184873 V 5.2037037 Z"
       inkscape:label="rect3-06" /></g></svg>
