<?xml version="1.0" encoding="UTF-8" standalone="yes"?>
<!-- Created with Inkscape (http://www.inkscape.org/) -->

<svg
        xmlns:inkscape="http://www.inkscape.org/namespaces/inkscape"
        xmlns:sodipodi="http://sodipodi.sourceforge.net/DTD/sodipodi-0.dtd"
        version="1.1"
        id="svg1"
        width="17"
        height="17"
        viewBox="0 0 17 17"
        sodipodi:docname="button_mouse.svg"
        inkscape:version="1.3.2 (091e20e, 2023-11-25, custom)"
        xmlns="http://www.w3.org/2000/svg">
    <defs
            id="defs1"/>
    <sodipodi:namedview
            id="namedview1"
            pagecolor="#505050"
            bordercolor="#ffffff"
            borderopacity="1"
            inkscape:showpageshadow="0"
            inkscape:pageopacity="0"
            inkscape:pagecheckerboard="1"
            inkscape:deskcolor="#505050"
            showgrid="true"
            inkscape:zoom="22.852941"
            inkscape:cx="3.5881596"
            inkscape:cy="7.2419562"
            inkscape:window-width="1920"
            inkscape:window-height="991"
            inkscape:window-x="-9"
            inkscape:window-y="-9"
            inkscape:window-maximized="1"
            inkscape:current-layer="g1">
        <inkscape:grid
                id="grid1"
                units="px"
                originx="0"
                originy="0"
                spacingx="0.5"
                spacingy="0.5"
                empcolor="#0099e5"
                empopacity="0.30196078"
                color="#0099e5"
                opacity="0.14901961"
                empspacing="5"
                dotted="false"
                gridanglex="30"
                gridanglez="30"
                visible="true"/>
    </sodipodi:namedview>
    <g
            inkscape:groupmode="layer"
            inkscape:label="Image"
            id="g1">
        <path
                id="path1"
                style="display:inline;fill:#ff0000;stroke-width:1.47619"
                d="M 8.3928572,0.714286 V 1.4523812 H 7.654762 V 3.666667 H 8.3928572 V 4.4047622 H 9.1309524 V 5.1428574 H 5.4404762 V 5.8809527 H 3.9642858 V 6.6190479 H 3.2261905 V 7.3571431 H 2.4880953 V 8.8333336 H 1.7500001 V 12.52381 H 2.4880953 V 14 h 0.7380952 v 0.738096 h 0.7380953 v 0.738095 h 1.4761904 v 0.738095 H 12.083333 V 15.476191 H 8.3928572 V 14.738096 H 9.1309524 V 14 h 0.7380953 v -0.738095 h 0.7380953 v -1.47619 H 9.8690477 V 11.047619 H 9.1309524 V 10.309524 H 7.654762 V 9.5714289 H 8.3928572 V 8.8333336 H 9.1309524 V 9.5714289 H 9.8690477 V 10.309524 H 10.607143 V 8.8333336 H 9.8690477 V 7.3571431 h 1.4761903 v 0.7380953 h 1.47619 v 0.7380952 h 1.476191 V 6.6190479 H 13.559524 V 5.1428574 H 12.821428 V 4.4047622 H 12.083333 V 3.666667 H 11.345238 V 1.4523812 H 10.607143 V 0.714286 Z m 3.6904758,14.761905 h 1.476191 v -0.738095 h -1.476191 z m 1.476191,-0.738095 h 0.738095 V 14 H 13.559524 Z M 14.297619,14 h 0.738095 v -1.47619 h -0.738095 z m 0,-1.47619 v -0.738095 h -0.738095 v 0.738095 z m -0.738095,-0.738095 v -0.738096 h -1.476191 v 0.738096 z M 11.345238,5.1428574 h 0.738095 v 0.7380953 h 0.738095 V 6.6190479 H 12.083333 V 5.8809527 h -0.738095 z"/>
    </g>
</svg>
