<?xml version="1.0" encoding="UTF-8" standalone="no"?>
<!-- Created with Inkscape (http://www.inkscape.org/) -->

<svg
        xmlns:inkscape="http://www.inkscape.org/namespaces/inkscape"
        xmlns:sodipodi="http://sodipodi.sourceforge.net/DTD/sodipodi-0.dtd"
        version="1.1"
        id="svg1"
        width="17"
        height="17"
        viewBox="0 0 17 17"
        sodipodi:docname="outside_clan.svg"
        inkscape:version="1.3.2 (091e20e, 2023-11-25, custom)"
        xml:space="preserve"
        xmlns="http://www.w3.org/2000/svg"><defs
     id="defs1" />
    <sodipodi:namedview
            id="namedview1"
            pagecolor="#505050"
            bordercolor="#ffffff"
            borderopacity="1"
            inkscape:showpageshadow="0"
            inkscape:pageopacity="0"
            inkscape:pagecheckerboard="1"
            inkscape:deskcolor="#505050"
            showgrid="true"
            inkscape:zoom="32"
            inkscape:cx="5.390625"
            inkscape:cy="7.390625"
            inkscape:window-width="1920"
            inkscape:window-height="991"
            inkscape:window-x="-9"
            inkscape:window-y="-9"
            inkscape:window-maximized="1"
            inkscape:current-layer="g1"><inkscape:grid
       id="grid1"
       units="px"
       originx="0"
       originy="0"
       spacingx="0.5"
       spacingy="0.5"
       empcolor="#0099e5"
       empopacity="0.30196078"
       color="#0099e5"
       opacity="0.14901961"
       empspacing="5"
       dotted="false"
       gridanglex="30"
       gridanglez="30"
       visible="true" /></sodipodi:namedview>
    <g
            inkscape:groupmode="layer"
            inkscape:label="Image"
            id="g1"><path
       id="path1"
       style="display:inline;fill:#000000;stroke-width:1.66667"
       d="M 1,1 V 15.166667 H 1.8333333 V 14.333333 H 2.6666667 V 13.5 H 3.5 V 12.666667 H 4.3333333 V 11.833333 H 5.1666667 V 11 H 6 V 10.166667 H 6.8333333 V 9.3333333 H 8.5 V 8.5 h 1.666667 V 7.6666667 h 1.666666 V 6.8333333 H 13.5 V 6 h 1.666667 V 5.1666667 H 16 V 1 H 15.166667 V 1.8333333 H 14.333333 V 2.6666667 H 13.5 V 3.5 H 12.666667 V 4.3333333 H 11.833333 V 5.1666667 H 5.1666667 V 4.3333333 H 4.3333333 V 3.5 H 3.5 V 2.6666667 H 2.6666667 V 1.8333333 H 1.8333333 V 1 Z M 15.166667,6.8333333 V 7.6666667 H 14.333333 V 8.5 H 13.5 V 9.3333333 H 11.833333 V 10.166667 H 11 V 11 H 9.3333333 v 0.833333 H 7.6666667 v 0.833334 H 6.8333333 V 13.5 H 5.1666667 v 0.833333 H 3.5 v 0.833334 H 2.6666667 V 16 H 15.166667 V 15.166667 H 16 V 6.8333333 Z" /></g></svg>
