<?xml version="1.0" encoding="UTF-8" standalone="no"?>
<!-- Created with Inkscape (http://www.inkscape.org/) -->

<svg
        xmlns:inkscape="http://www.inkscape.org/namespaces/inkscape"
        xmlns:sodipodi="http://sodipodi.sourceforge.net/DTD/sodipodi-0.dtd"
        version="1.1"
        id="svg1"
        width="17"
        height="17"
        viewBox="0 0 17 17"
        sodipodi:docname="button_paw.svg"
        inkscape:version="1.3.2 (091e20e, 2023-11-25, custom)"
        xmlns="http://www.w3.org/2000/svg">
    <defs
            id="defs1"/>
    <sodipodi:namedview
            id="namedview1"
            pagecolor="#505050"
            bordercolor="#ffffff"
            borderopacity="1"
            inkscape:showpageshadow="0"
            inkscape:pageopacity="0"
            inkscape:pagecheckerboard="1"
            inkscape:deskcolor="#505050"
            showgrid="true"
            inkscape:zoom="32"
            inkscape:cx="4.375"
            inkscape:cy="8.484375"
            inkscape:window-width="1920"
            inkscape:window-height="991"
            inkscape:window-x="-9"
            inkscape:window-y="-9"
            inkscape:window-maximized="1"
            inkscape:current-layer="g1">
        <inkscape:grid
                id="grid1"
                units="px"
                originx="0"
                originy="0"
                spacingx="0.5"
                spacingy="0.5"
                empcolor="#0099e5"
                empopacity="0.30196078"
                color="#0099e5"
                opacity="0.14901961"
                empspacing="5"
                dotted="false"
                gridanglex="30"
                gridanglez="30"
                visible="true"/>
    </sodipodi:namedview>
    <g
            inkscape:groupmode="layer"
            inkscape:label="Image"
            id="g1">
        <path
                style="fill:#ff0000;stroke-width:1.63158"
                d="M 4.351974,7.1578948 H 2.720395 v 0.8157895 h -0.81579 v 2.4473687 h 0.81579 v 0.815789 h 0.815789 v -0.815789 h 0.81579 z"
                id="path1"/>
        <path
                style="fill:#ff0000;stroke-width:1.63158"
                d="M 3.536184,6.3421053 H 2.720395 V 5.5263158 h 0.815789 z"
                id="path2"/>
        <path
                style="fill:#ff0000;stroke-width:1.63158"
                d="M 5.983553,7.1578948 V 6.3421053 H 5.167763 V 3.0789474 h 0.81579 V 2.2631579 H 6.799342 V 3.0789474 H 7.615131 V 6.3421053 H 6.799342 v 0.8157895 z"
                id="path3"/>
        <path
                style="fill:#ff0000;stroke-width:1.63158"
                d="M 5.983553,1.4473685 V 0.631579 h 0.815789 v 0.8157895 z"
                id="path4"/>
        <path
                style="fill:#ff0000;stroke-width:1.63158"
                d="m 12.509868,7.1578948 h 1.631579 v 0.8157895 h 0.81579 v 2.4473687 h -0.81579 v 0.815789 h -0.815789 v -0.815789 h -0.81579 z"
                id="path1-0"/>
        <path
                style="fill:#ff0000;stroke-width:1.63158"
                d="m 13.325658,6.3421053 h 0.815789 V 5.5263158 h -0.815789 z"
                id="path2-0"/>
        <path
                style="fill:#ff0000;stroke-width:1.63158"
                d="M 10.878289,7.1578948 V 6.3421053 h 0.81579 V 3.0789474 h -0.81579 V 2.2631579 H 10.0625 V 3.0789474 H 9.246711 V 6.3421053 H 10.0625 v 0.8157895 z"
                id="path3-2"/>
        <path
                style="fill:#ff0000;stroke-width:1.63158"
                d="M 10.878289,1.4473685 V 0.631579 H 10.0625 v 0.8157895 z"
                id="path4-7"/>
        <path
                style="fill:#ff0000;stroke-width:1.63158"
                d="m 7.615131,7.9736843 h 1.63158 V 8.7894737 H 10.0625 v 1.6315793 h 1.631579 v 0.815789 h 0.815789 v 0.81579 h 0.81579 v 3.263158 h -0.81579 v 0.815789 H 10.878289 V 14.5 H 10.0625 v 0.81579 H 9.246711 v 0.815789 H 7.615131 V 15.31579 H 6.799342 V 14.5 H 5.983553 v 1.631579 H 4.351974 V 15.31579 h -0.81579 v -3.263158 h 0.81579 v -0.81579 H 5.167763 V 10.421053 H 6.799342 V 8.7894737 h 0.815789 z"
                id="path5"/>
    </g>
</svg>
